<?xml version="1.0" encoding="UTF-8"?>
<svg width="60px" height="60px" viewBox="0 0 60 60" version="1.1" xmlns="http://www.w3.org/2000/svg" xmlns:xlink="http://www.w3.org/1999/xlink">
    <!-- Generator: Sketch 56.2 (81672) - https://sketch.com -->
    <title>icon_4</title>
    <desc>Created with Sketch.</desc>
    <defs>
        <linearGradient x1="50%" y1="0%" x2="50%" y2="100%" id="linearGradient-1">
            <stop stop-color="#FF9E02" offset="0%"></stop>
            <stop stop-color="#FFCD05" offset="100%"></stop>
        </linearGradient>
        <linearGradient x1="50%" y1="0%" x2="50%" y2="100%" id="linearGradient-2">
            <stop stop-color="#FF9E02" offset="0%"></stop>
            <stop stop-color="#FFCD05" offset="100%"></stop>
        </linearGradient>
        <linearGradient x1="50%" y1="0%" x2="50%" y2="100%" id="linearGradient-3">
            <stop stop-color="#FF9E02" offset="0%"></stop>
            <stop stop-color="#FFCD05" offset="100%"></stop>
        </linearGradient>
    </defs>
    <g id="icon_4" stroke="none" stroke-width="1" fill="none" fill-rule="evenodd">
        <path d="M17.3062251,-6.99192208e-16 L42.6937749,6.99192208e-16 C48.7115264,-4.06250808e-16 50.8937085,0.626572875 53.0937085,1.80314575 C55.2937085,2.97971863 57.0202814,4.7062915 58.1968542,6.9062915 C59.3734271,9.1062915 60,11.2884736 60,17.3062251 L60,42.6937749 C60,48.7115264 59.3734271,50.8937085 58.1968542,53.0937085 C57.0202814,55.2937085 55.2937085,57.0202814 53.0937085,58.1968542 C50.8937085,59.3734271 48.7115264,60 42.6937749,60 L17.3062251,60 C11.2884736,60 9.1062915,59.3734271 6.9062915,58.1968542 C4.7062915,57.0202814 2.97971863,55.2937085 1.80314575,53.0937085 C0.626572875,50.8937085 2.70833872e-16,48.7115264 -4.66128138e-16,42.6937749 L4.66128138e-16,17.3062251 C-2.70833872e-16,11.2884736 0.626572875,9.1062915 1.80314575,6.9062915 C2.97971863,4.7062915 4.7062915,2.97971863 6.9062915,1.80314575 C9.1062915,0.626572875 11.2884736,4.06250808e-16 17.3062251,-6.99192208e-16 Z" id="App-Icon" fill="#2A303A"></path>
        <g id="Group" transform="translate(11.000000, 11.000000)" stroke-width="2">
            <circle id="Oval" stroke="url(#linearGradient-1)" cx="19" cy="19" r="18.8235294"></circle>
            <g id="lines" transform="translate(19.500000, 19.500000) rotate(45.000000) translate(-19.500000, -19.500000) translate(7.000000, 7.000000)" stroke-linecap="round" stroke-linejoin="round">
                <path d="M6.77083333,0.520833333 L6.77083333,24.4791667" id="Stroke-2167" stroke="url(#linearGradient-2)"></path>
                <path d="M11.9791667,0.520833333 L11.9791667,24.4791667" id="Stroke-2168" stroke="url(#linearGradient-2)"></path>
                <path d="M17.1875,0.520833333 L17.1875,24.4791667" id="Stroke-2169" stroke="url(#linearGradient-2)"></path>
                <path d="M24.4791667,6.77083333 L0.520833333,6.77083333" id="Stroke-2170" stroke="url(#linearGradient-3)"></path>
                <path d="M24.4791667,11.9791667 L0.520833333,11.9791667" id="Stroke-2171" stroke="url(#linearGradient-3)"></path>
                <path d="M24.4791667,17.1875 L0.520833333,17.1875" id="Stroke-2172" stroke="url(#linearGradient-3)"></path>
            </g>
        </g>
    </g>
</svg>